name analog
datacolumns 19
datarows 29
range 0.3845 0.3985
endheader
time	ground_force_vx	ground_force_vy	ground_force_vz	ground_force_px	ground_force_py	ground_force_pz	l_ground_force_vx	l_ground_force_vy	l_ground_force_vz	l_ground_force_px	l_ground_force_py	l_ground_force_pz	ground_torque_x	ground_torque_y	ground_torque_z	l_ground_torque_x	l_ground_torque_y	l_ground_torque_z
0.3845	-0.0	-0.0	-0.0	-0.0	-0.0	-0.0	-4.522669315338135	8.266594886779785	-763.5946044921875	-0.0	-0.0	-0.0	-0.0	-0.0	-0.0	219132.03125	22050.349609375	-1602.974853515625
0.385	-0.0	-0.0	-0.0	-0.0	-0.0	-0.0	-4.752909660339356	8.523448944091797	-764.0794067382812	-0.0	-0.0	-0.0	-0.0	-0.0	-0.0	219110.34375	22000.83984375	-1656.4173583984375
0.3855	-0.0	-0.0	-0.0	-0.0	-0.0	-0.0	-5.031176090240479	8.6818208694458	-763.9066162109375	-0.0	-0.0	-0.0	-0.0	-0.0	-0.0	219127.796875	22014.38671875	-1727.5140380859375
0.386	-0.0	-0.0	-0.0	-0.0	-0.0	-0.0	-4.999570846557617	9.199847221374512	-763.4718017578125	-0.0	-0.0	-0.0	-0.0	-0.0	-0.0	218976.5625	21949.373046875	-1661.2474365234375
0.3865	-0.0	-0.0	-0.0	-0.0	-0.0	-0.0	-4.346828460693359	9.541396141052246	-764.56591796875	-0.0	-0.0	-0.0	-0.0	-0.0	-0.0	219273.515625	21953.876953125	-1431.009521484375
0.387	-0.0	-0.0	-0.0	-0.0	-0.0	-0.0	-4.310769081115723	9.444454193115234	-765.0874633789062	-0.0	-0.0	-0.0	-0.0	-0.0	-0.0	218864.265625	21822.84375	-1278.7159423828125
0.3875	-0.0	-0.0	-0.0	-0.0	-0.0	-0.0	-4.496164321899414	9.13478946685791	-763.5230102539062	-0.0	-0.0	-0.0	-0.0	-0.0	-0.0	218554.65625	21998.99609375	-1340.6961669921875
0.388	-0.0	-0.0	-0.0	-0.0	-0.0	-0.0	-5.071494102478027	8.728950500488281	-761.0758056640625	-0.0	-0.0	-0.0	-0.0	-0.0	-0.0	218212.96875	22256.9609375	-1403.774658203125
0.3885	-0.0	-0.0	-0.0	-0.0	-0.0	-0.0	-5.604938507080078	8.125595092773438	-759.9758911132812	-0.0	-0.0	-0.0	-0.0	-0.0	-0.0	217581.625	22408.94921875	-1404.182373046875
0.389	-0.0	-0.0	-0.0	-0.0	-0.0	-0.0	-5.800384998321533	7.729123115539551	-758.4407958984375	-0.0	-0.0	-0.0	-0.0	-0.0	-0.0	216899.609375	22769.84765625	-1568.2890625
0.3895	-0.0	-0.0	-0.0	-0.0	-0.0	-0.0	-6.201837539672852	7.57529354095459	-757.6588134765625	-0.0	-0.0	-0.0	-0.0	-0.0	-0.0	216438.71875	22603.8046875	-1625.2598876953125
0.39	-0.0	-0.0	-0.0	-0.0	-0.0	-0.0	-6.944251537322998	7.74388313293457	-756.9862060546875	-0.0	-0.0	-0.0	-0.0	-0.0	-0.0	216472.75	22577.75	-1785.7791748046875
0.3905	-0.0	-0.0	-0.0	-0.0	-0.0	-0.0	-7.133355140686035	7.917637348175049	-758.9119873046875	-0.0	-0.0	-0.0	-0.0	-0.0	-0.0	216568.40625	22485.486328125	-1563.0535888671875
0.391	-0.0	-0.0	-0.0	-0.0	-0.0	-0.0	-6.393777370452881	8.089123725891113	-762.04443359375	-0.0	-0.0	-0.0	-0.0	-0.0	-0.0	216865.859375	22219.23046875	-1458.23779296875
0.3915	-0.0	-0.0	-0.0	-0.0	-0.0	-0.0	-5.265791893005371	8.608652114868164	-763.6971435546875	-0.0	-0.0	-0.0	-0.0	-0.0	-0.0	217275.078125	21910.861328125	-1117.496337890625
0.392	-0.0	-0.0	-0.0	-0.0	-0.0	-0.0	-4.527998447418213	8.76209831237793	-765.22900390625	-0.0	-0.0	-0.0	-0.0	-0.0	-0.0	217311.375	21544.927734375	-838.4892578125
0.3925	-0.0	-0.0	-0.0	-0.0	-0.0	-0.0	-3.4964911937713623	8.720043182373047	-767.0860595703125	-0.0	-0.0	-0.0	-0.0	-0.0	-0.0	217243.734375	21064.0625	-422.7914733886719
0.393	-0.0	-0.0	-0.0	-0.0	-0.0	-0.0	-3.193540573120117	8.19729232788086	-766.91796875	-0.0	-0.0	-0.0	-0.0	-0.0	-0.0	217031.734375	20952.884765625	-208.2847442626953
0.3935	-0.0	-0.0	-0.0	-0.0	-0.0	-0.0	-2.872141122817993	7.374862194061279	-767.2901000976562	-0.0	-0.0	-0.0	-0.0	-0.0	-0.0	216814.34375	20616.611328125	0.0044032931327819
0.394	-0.0	-0.0	-0.0	-0.0	-0.0	-0.0	-2.9774086475372314	6.464038372039795	-767.1588745117188	-0.0	-0.0	-0.0	-0.0	-0.0	-0.0	216288.46875	20206.236328125	113.26569366455078
0.3945	-0.0	-0.0	-0.0	-0.0	-0.0	-0.0	-2.809174060821533	5.7777099609375	-766.2713623046875	-0.0	-0.0	-0.0	-0.0	-0.0	-0.0	215826.5	19880.875	224.4220123291016
0.395	-0.0	-0.0	-0.0	-0.0	-0.0	-0.0	-2.278743267059326	5.126381874084473	-765.7765502929688	-0.0	-0.0	-0.0	-0.0	-0.0	-0.0	215102.765625	19685.9765625	422.3721923828125
0.3955	-0.0	-0.0	-0.0	-0.0	-0.0	-0.0	-1.519333004951477	4.549365997314453	-765.4710083007812	-0.0	-0.0	-0.0	-0.0	-0.0	-0.0	214683.578125	19193.529296875	736.5672607421875
0.396	-0.0	-0.0	-0.0	-0.0	-0.0	-0.0	-0.7216454148292542	4.163923263549805	-764.8165283203125	-0.0	-0.0	-0.0	-0.0	-0.0	-0.0	213828.96875	18710.306640625	1054.8251953125
0.3965	-0.0	-0.0	-0.0	-0.0	-0.0	-0.0	-0.3604352176189422	3.5186593532562256	-763.5946044921875	-0.0	-0.0	-0.0	-0.0	-0.0	-0.0	213104.703125	18449.4609375	1254.201171875
0.397	-0.0	-0.0	-0.0	-0.0	-0.0	-0.0	0.2803321480751037	2.7065534591674805	-763.3062744140625	-0.0	-0.0	-0.0	-0.0	-0.0	-0.0	212446.265625	18106.58984375	1476.2041015625
0.3975	-0.0	-0.0	-0.0	-0.0	-0.0	-0.0	0.8427410125732422	1.652590036392212	-763.9439086914062	-0.0	-0.0	-0.0	-0.0	-0.0	-0.0	212042.109375	17696.94140625	1719.99267578125
0.398	-0.0	-0.0	-0.0	-0.0	-0.0	-0.0	1.3702088594436646	1.0031458139419556	-763.68701171875	-0.0	-0.0	-0.0	-0.0	-0.0	-0.0	211805.015625	17257.77734375	1960.1177978515625
0.3985	-0.0	-0.0	-0.0	-0.0	-0.0	-0.0	1.7880114316940308	0.5161948800086975	-764.4403076171875	-0.0	-0.0	-0.0	-0.0	-0.0	-0.0	211203.734375	17319.408203125	2171.490966796875
